<?xml version="1.0" encoding="UTF-8"?>
<svg
        version="1.1"
        viewBox="0 0 1012 832"
        xmlns="http://www.w3.org/2000/svg"
    >
        <path
            transform="translate(365,399)"
            d="m0 0h7l7 4 6 8 1 1v403l-10 10-3 1h-11l-14-3-17-3-13-2-14-3-51-9-88-16-71-13-17-3-14-3-14-2-9-2-25-5-6-3-7-8-1-3-1-50v-137l1-81 2-7 3-1v-3l10-6 9-2 10-1 12-3h8l8-3 15-2 13-3 11-1 5-2 15-2 13-3 10-2 21-3 13-3 10-2 21-3 13-3 10-2 11-2h7l4-2 20-3 13-3h7l9-3 17-3 11-2h7l9-3 15-2z"
            fill="#3852CE"
        />
        <path
            transform="translate(458,6)"
            d="m0 0h12l31 6 2 1 11 1 31 6 24 4 65 12 39 7 23 4 10 2 28 5 43 8 17 3 23 5 6 3 7 9v274l-3 4-5 5-11 4-31 6h-6l-5 2-13 1-9 3-10 2h-4v-2h-2v2l-12 3-32 6-17 3-10 2-34 6-10 2-34 6h-3l-13 3-16 3-12 2h-4l-5 2-12 1-10 3-13 2h-4l-5 2-12 1-10 3-10-4-4-5v-2l-3-2v-403l6-7zm-6 419 2 2v-2z"
            fill="#FE4B62"
        />
        <path
            transform="translate(813,441)"
            d="m0 0 7 2 9 8 2 4v304l-4 8-6 5-5 2h-10l-330-47-17-3-8-4-4-5-2-4-1-23v-174l1-10 6-9 11-4 39-6 113-16 191-27z"
            fill="#00D295"
        />
        <path
            transform="translate(15,59)"
            d="m0 0h12l7 2 21 2 7 2 27 3 13 2 65 9 57 8 48 7 57 8 35 5 13 4 5 5v2l3 1 1 4v202l-2 5h-2l-1 4-5 3-17 4-13 1-4 1-10 2-15 1-5 2-17 2h-8l-4 2-16 2h-8l-4 2-16 2-4 1-4-1-3 2-17 2-4 1-4-1-4 2-16 2-4 1-4-1-3 2-17 2-4 1-4-1-4 2-16 2-4 1-4-1-4 2-15 2h-9l-4 2-16 1-1-3h-5l-3-3-1-5-3-3v-299l2-6 3-6z"
            fill="#FEC55E"
        />
        <path
            transform="translate(992)"
            d="m0 0h20v832h-19l-1-20z"
            fill="#03040A"
        />
        <path transform="translate(448,422)" d="m0 0" fill="#000000"/>
    </svg>